<svg width="164" height="69" viewBox="0 0 164 69" fill="none" xmlns="http://www.w3.org/2000/svg">
<path d="M161.889 0C134.898 31.3681 86.7516 54.7119 86.7516 54.7119C86.7516 54.7119 110.825 81.703 145.84 61.2773C171.022 46.5883 161.889 0 161.889 0Z" fill="white" fill-opacity="0.25"/>
<path d="M156.053 13.8603C127.603 40.122 87.4811 54.7119 87.4811 54.7119C87.4811 54.7119 115.931 80.9735 143.652 61.2773C164.078 46.7642 156.053 13.8603 156.053 13.8603Z" fill="white" fill-opacity="0.5"/>
<path d="M153.135 23.3437C127.603 43.7695 86.7516 54.7118 86.7516 54.7118C86.7516 54.7118 113.013 77.3261 135.628 65.6542C158.242 53.9824 153.135 23.3437 153.135 23.3437Z" fill="white"/>
<path d="M1.61398 0C28.6052 31.3681 76.7516 54.7119 76.7516 54.7119C76.7516 54.7119 52.6784 81.703 17.6628 61.2773C-7.51834 46.5883 1.61398 0 1.61398 0Z" fill="white" fill-opacity="0.25"/>
<path d="M7.44991 13.8603C35.9001 40.122 76.0221 54.7119 76.0221 54.7119C76.0221 54.7119 47.5719 80.9735 19.8513 61.2773C-0.574501 46.7642 7.44991 13.8603 7.44991 13.8603Z" fill="white" fill-opacity="0.5"/>
<path d="M10.3679 23.3437C35.9001 43.7695 76.7516 54.7118 76.7516 54.7118C76.7516 54.7118 50.4899 77.3261 27.8757 65.6542C5.26144 53.9824 10.3679 23.3437 10.3679 23.3437Z" fill="white"/>
</svg>
